<svg width="1024" height="1024" viewBox="0 0 1024 1024" fill="none" xmlns="http://www.w3.org/2000/svg">
  <!-- Background gradient -->
  <defs>
    <linearGradient id="bg" x1="0%" y1="0%" x2="100%" y2="100%">
      <stop offset="0%" style="stop-color:#6366f1"/>
      <stop offset="50%" style="stop-color:#8b5cf6"/>
      <stop offset="100%" style="stop-color:#ec4899"/>
    </linearGradient>
    <linearGradient id="shine" x1="0%" y1="0%" x2="100%" y2="100%">
      <stop offset="0%" style="stop-color:rgba(255,255,255,0.3)"/>
      <stop offset="100%" style="stop-color:rgba(255,255,255,0)"/>
    </linearGradient>
  </defs>
  
  <!-- Background -->
  <rect width="1024" height="1024" rx="200" fill="url(#bg)"/>
  
  <!-- Shine effect -->
  <rect width="1024" height="512" rx="200" fill="url(#shine)"/>
  
  <!-- Book icon -->
  <g transform="translate(262, 200)">
    <!-- Book pages -->
    <rect x="50" y="100" width="400" height="480" rx="20" fill="white" opacity="0.9"/>
    <rect x="70" y="120" width="360" height="440" rx="10" fill="#f0f0ff"/>
    
    <!-- Book spine -->
    <rect x="50" y="100" width="30" height="480" fill="#4f46e5"/>
    
    <!-- Text lines -->
    <rect x="120" y="180" width="200" height="20" rx="10" fill="#c7d2fe"/>
    <rect x="120" y="220" width="260" height="20" rx="10" fill="#c7d2fe"/>
    <rect x="120" y="260" width="180" height="20" rx="10" fill="#c7d2fe"/>
    
    <!-- Star decoration -->
    <g transform="translate(200, 380)">
      <polygon points="50,0 61,35 98,35 68,57 79,91 50,70 21,91 32,57 2,35 39,35" fill="#fbbf24"/>
    </g>
    
    <!-- Graduation cap -->
    <g transform="translate(150, -50)">
      <polygon points="100,80 0,130 100,180 200,130" fill="#1e1b4b"/>
      <rect x="80" y="50" width="40" height="40" fill="#1e1b4b"/>
      <rect x="95" y="30" width="10" height="30" fill="#fbbf24"/>
      <circle cx="100" cy="25" r="12" fill="#fbbf24"/>
    </g>
  </g>
  
  <!-- Text: Bé Thông Minh -->
  <text x="512" y="780" font-family="Arial, sans-serif" font-size="80" font-weight="bold" fill="white" text-anchor="middle">
    Bé Thông Minh
  </text>
  
  <!-- Decorative elements -->
  <circle cx="150" cy="150" r="30" fill="white" opacity="0.2"/>
  <circle cx="874" cy="874" r="50" fill="white" opacity="0.2"/>
  <circle cx="900" cy="200" r="20" fill="white" opacity="0.15"/>
</svg>
